# xmcd
#
# Track frame offsets: 
#        151
#        19480
#        37202
#        60242
#        76550
#        91052
#        108179
#        123792
#        142416
#        161273
#        190595
#        222067
#        236920
#        256499
#        281707
#        298319
#        315194
#        331529
#
# Disc length: 4678 seconds
#
# Revision: 0
# Processed by: cddbd v1.5.2PL0 Copyright (c) Steve Scherf et al.
# Submitted via: ExactAudioCopy v0.95b3
#
DISCID=f4124412
DTITLE=Enrique Iglesias - Dance Hits and Remixes [Bootleg]
DYEAR=2002
DGENRE=Dance
TTITLE0=Hero (Metro Mix) (English Version)
TTITLE1=Be With You (Thunderpuss Radio Mix)
TTITLE2=Bailamos (Groove Brothers Rmx)
TTITLE3=Sad Eyes (HQ2 Radio Remix)
TTITLE4=Rhythm Divine (Morales Radio Mix)
TTITLE5=You're My ¹1 (Nino Radio Mix)
TTITLE6=Escape
TTITLE7=Love To See You Cry
TTITLE8=One Night Stand
TTITLE9=Bailamos (Eric Morillo Main Vocal Mix)
TTITLE10=Rhythm Divine (Mijango's Extended Mix)
TTITLE11=Hero (Thunderpuss Radio Edit)
TTITLE12=Oyeme
TTITLE13=Rhythm Divine (Fernando G Club Mix)
TTITLE14=Hero (Ventura and Colombo Remix)
TTITLE15=Sad Eyes (Guy Roche Mix)
TTITLE16=Bailamos (Single Version)
TTITLE17=Hero (Metro Mix) (Spanish Version)
EXTD=
EXTT0=
EXTT1=
EXTT2=
EXTT3=
EXTT4=
EXTT5=
EXTT6=
EXTT7=
EXTT8=
EXTT9=
EXTT10=
EXTT11=
EXTT12=
EXTT13=
EXTT14=
EXTT15=
EXTT16=
EXTT17=
PLAYORDER=
